# xmcd CD database file
#
# Track frame offsets:
#	150
#	28725
#	66120
#	99514
#	139221
#	167107
#
# Disc length: 2616 seconds
#
# Revision: 1
# Processed by: cddbd v1.5.2PL0 Copyright (c) Steve Scherf et al.
# Submitted via: CDex 1.51
#
DISCID=4f0a3606
DTITLE=Medwyn Goodall - Siesta
DYEAR=1995
DGENRE=New Age
TTITLE0=the Scent of Your Hair
TTITLE1=Colours of Silence
TTITLE2=Timeless Story
TTITLE3=Pastel Moods
TTITLE4=Stolen Kisses
TTITLE5=Still Dreaming
EXTD=YEAR: 1995
EXTT0=
EXTT1=
EXTT2=
EXTT3=
EXTT4=
EXTT5=
PLAYORDER=
